# xmcd
#
# Track frame offsets:
#	150
#	19255
#	38080
#	56585
#	74802
#	94867
#	111932
#	131097
#	151427
#	170407
#	189282
#	207735
#	225905
#	245975
#	263035
#	282217
#	313960
#
# Disc length: 4198 seconds
#
# Revision: 3
# Processed by: cddbd v1.5.2PL0 Copyright (c) Steve Scherf et al.
# Submitted via: audiograbber 1.83.01
#
DISCID=01106411
DTITLE=Various Artist - 083(SC)
DYEAR=1900
DGENRE=
TTITLE0=Sara Evans - Saints and Angels
TTITLE1=Confederate Railroad - That's What Brothers Do
TTITLE2=Dixie Chicks - Heartbreak Town
TTITLE3=Laura Dawn - I Would
TTITLE4=Pat Green - Carry On
TTITLE5=Shelby Lynne - Wall In Your Heart
TTITLE6=Chris Cagle - I Breathe In I Breathe Out
TTITLE7=David Ball - Riding With Private Malone
TTITLE8=Sara Evans - Saints and Angels (Vocals)
TTITLE9=Confederate Railroad - That's What Brothers Do (Vocals)
TTITLE10=Dixie Chicks - Heartbreak Town (Vocals)
TTITLE11=Laura Dawn - I Would (Vocals)
TTITLE12=Pat Green - Carry On (Vocals)
TTITLE13=Shelby Lynne - Wall In Your Heart (Vocals)
TTITLE14=Chris Cagle - I Breathe In I Breathe Out (Vocals)
TTITLE15=David Ball - Riding With Private Malone (Vocals)
TTITLE16=n/a - Data Track
EXTD=
EXTT0=
EXTT1=
EXTT2=
EXTT3=
EXTT4=
EXTT5=
EXTT6=
EXTT7=
EXTT8=
EXTT9=
EXTT10=
EXTT11=
EXTT12=
EXTT13=
EXTT14=
EXTT15=
EXTT16=
PLAYORDER=
